GIL06_fast3_RRA_states
nRows=5
nColumns=47

# SIMM Motion File Header:
name GIL06_fast3_RRA_states
datacolumns 47
datarows 5
otherdata 1
range 0.34517000000000020000 0.34717000000000020000
endheader
time	pelvis_tx	pelvis_ty	pelvis_tz	pelvis_tilt	pelvis_list	pelvis_rotation	hip_flexion_r	hip_adduction_r	hip_rotation_r	knee_angle_r	ankle_angle_r	subtalar_angle_r	mtp_angle_r	hip_flexion_l	hip_adduction_l	hip_rotation_l	knee_angle_l	ankle_angle_l	subtalar_angle_l	mtp_angle_l	lumbar_extension	lumbar_bending	lumbar_rotation	pelvis_tx_u	pelvis_ty_u	pelvis_tz_u	pelvis_tilt_u	pelvis_list_u	pelvis_rotation_u	hip_flexion_r_u	hip_adduction_r_u	hip_rotation_r_u	knee_angle_r_u	ankle_angle_r_u	subtalar_angle_r_u	mtp_angle_r_u	hip_flexion_l_u	hip_adduction_l_u	hip_rotation_l_u	knee_angle_l_u	ankle_angle_l_u	subtalar_angle_l_u	mtp_angle_l_u	lumbar_extension_u	lumbar_bending_u	lumbar_rotation_u
      0.34517000000000020000	      0.31734844892425612000	      0.84294298952420310000	     -0.28664387129471575000	     -4.04183234644771350000	      1.17501522544125940000	     -0.36491377926271101000	     32.61311553077759800000	     -2.40135795167448540000	      3.60434844202770900000	    -47.07629758533936100000	      4.76256056680598140000	      0.00000000000000357095	     -0.00000000000000115402	     -1.46386957693247060000	      5.54248123904929370000	     -3.83297940603674240000	     -5.36279881809951230000	      6.06583795396468690000	     -0.00000000000000651652	      0.00000000000004096656	      4.99753581400292730000	     -3.00719875699265990000	      4.83072374632377780000	      1.22660557512027710000	     -0.13732036360856370000	     -0.07128388813080106800	     -4.03066601016031360000	    -30.20268559580722500000	     45.80054259806041000000	     56.39892690449048000000	     32.01933443462390000000	      6.93680049806149770000	    366.30013078032488000000	    -22.89721694428190400000	      0.00000000000001789817	     -0.00000000000001613191	   -109.95065365349920000000	    -19.45752174348071900000	     37.12118693857370000000	     33.24501822844460700000	     55.15718483945647000000	      0.00000000000004284243	     -0.00000000000015072313	     -3.85116648956958190000	     29.30028158939537500000	    -66.02268704814798600000
      0.34567000000000020000	      0.31796193809336576000	      0.84287389374476773000	     -0.28667939023060174000	     -4.04392595434645940000	      1.15996953991957400000	     -0.34197549906626157000	     32.64126120154831100000	     -2.38543752916408900000	      3.60782428178548420000	    -46.89299923261663100000	      4.75093592701624350000	      0.00000000000000357981	     -0.00000000000000116147	     -1.51876085887985090000	      5.53276055823432960000	     -3.81419658020117640000	     -5.34620814996868710000	      6.09340450038425900000	     -0.00000000000000649309	      0.00000000000004088376	      4.99574632881246310000	     -2.99265598091733280000	      4.79772530943379660000	      1.22735194325616500000	     -0.13906201898816414000	     -0.07079061691798080300	     -4.34388756162252410000	    -29.98013872849763200000	     45.95186747356714100000	     56.18460298775918500000	     31.66275309822590200000	      6.96677610728656480000	    366.89034454575977000000	    -23.60011477134107900000	      0.00000000000001865140	     -0.00000000000001472818	   -109.61449090491649000000	    -19.42566075043958300000	     38.00879933777223100000	     33.11804106100061100000	     55.10856408053842200000	      0.00000000000004939429	     -0.00000000000017405799	     -3.30650484575937180000	     28.87071552632103200000	    -65.96950457684437200000
      0.34617000000000020000	      0.31857580170737015000	      0.84280392827492334000	     -0.28671466069247958000	     -4.04617634096884960000	      1.14503499766084520000	     -0.31896262392037372000	     32.66930095488193300000	     -2.36969479746455040000	      3.61131542729782630000	    -46.70941015186032500000	      4.73896163242888590000	      0.00000000000000358904	     -0.00000000000000116898	     -1.57348409126619090000	      5.52305511545612140000	     -3.79497197126535250000	     -5.32968041508703380000	      6.12094587379675480000	     -0.00000000000000646652	      0.00000000000004079230	      4.99422955761424700000	     -2.97832813493886480000	      4.76475579264773510000	      1.22810334962466290000	     -0.14079905396517980000	     -0.07029003142021787700	     -4.65775047497076680000	    -29.75812641599818100000	     46.09891936277950500000	     55.97520598965782300000	     31.30857886207362700000	      6.99800667773550610000	    367.46309126193302000000	    -24.29592946576029500000	      0.00000000000001855791	     -0.00000000000001384463	   -109.27846914558411000000	    -19.39657676250500600000	     38.88822308219777600000	     32.99323568000821900000	     55.05607699182407800000	      0.00000000000005427348	     -0.00000000000018158000	     -2.76035312412357390000	     28.44058915123205000000	    -65.90701673970458800000
      0.34667000000000020000	      0.31919004228264286000	      0.84273309549503939000	     -0.28674967905963900000	     -4.04858379796447570000	      1.13021131678198210000	     -0.29587729565337517000	     32.69723721067787600000	     -2.35412854237833400000	      3.61482248457433330000	    -46.52553904259691100000	      4.72664115118621280000	      0.00000000000000359838	     -0.00000000000000117584	     -1.62803935863730210000	      5.51336351826721490000	     -3.77530975924089730000	     -5.31321457260185690000	      6.14845994890108830000	     -0.00000000000000643816	      0.00000000000004069916	      4.99298620426127830000	     -2.96421547061980030000	      4.73181984138510540000	      1.22885979295815910000	     -0.14253126143539413000	     -0.06978223228782150200	     -4.97217189181930050000	    -29.53669471458466200000	     46.24167538084866900000	     55.77062814199374700000	     30.95685260880518500000	      7.03041383637035280000	    368.01842977729780000000	    -24.98482137065937900000	      0.00000000000001850246	     -0.00000000000001271914	   -108.94263141638291000000	    -19.37027199753983100000	     39.75923289605661600000	     32.87048046683683800000	     54.99981824576239800000	      0.00000000000006003536	     -0.00000000000019839917	     -2.21283059903823040000	     28.00999020065815200000	    -65.83523684219767300000
      0.34717000000000020000	      0.31980466233881893000	      0.84266139785248706000	     -0.28678444173906292000	     -4.05114859200820110000	      1.11549819878420560000	     -0.27272166792207014000	     32.72507236760598900000	     -2.33873753051281910000	      3.61834602419740480000	    -46.34139461239094300000	      4.71397793696693680000	      0.00000000000000360749	     -0.00000000000000118248	     -1.68242676050029960000	      5.50368438016795030000	     -3.75521417672431830000	     -5.29680961351141380000	      6.17594508423739890000	     -0.00000000000000640718	      0.00000000000004060044	      4.99201693521230010000	     -2.95031820900495000000	      4.69892209943682460000	      1.22962126630785670000	     -0.14425843277080730000	     -0.06926731959204549000	     -5.28706779841922090000	    -29.31588822563248100000	     46.38011492048278200000	     55.57075799109019700000	     30.60761283360094300000	      7.06391935779190480000	    368.55642584712876000000	    -25.66695708380035200000	      0.00000000000001808803	     -0.00000000000001503564	   -108.60702100627630000000	    -19.34674691733449200000	     40.62161135792818100000	     32.74965197401660100000	     54.93991181865835200000	      0.00000000000007258004	     -0.00000000000022277075	     -1.66405955795233320000	     27.57900617181647700000	    -65.75419522438451700000
